<svg width="202" height="62" viewBox="0 0 202 62" fill="none" xmlns="http://www.w3.org/2000/svg">
<path d="M78 0C79.1046 9.66399e-08 80 0.89543 80 2C80 3.10457 79.1046 4 78 4H7.5C5.567 4 4 5.567 4 7.5V54.4971C4 56.4301 5.567 57.9971 7.5 57.9971H78C79.1046 57.9971 80 58.8925 80 59.9971C80 61.1016 79.1046 61.9971 78 61.9971H6.5C2.91015 61.9971 0 59.0869 0 55.4971V6.5C8.17206e-07 2.91015 2.91015 3.62394e-08 6.5 0H78ZM100.156 37.4756L108.076 14.5322H116.716L119.644 46.5H113.404L111.196 24.0361L102.748 46.8359L97.0361 47.3643L88.54 23.9404L86.5234 46.5H80.332L83.3555 14.5322H91.9961L100.156 37.4756ZM26.1318 14.0996C28.1158 14.0996 29.988 14.3245 31.748 14.7725C33.54 15.2205 35.124 15.8604 36.5 16.6924L34.8203 22.4521C33.5723 21.6841 32.1796 21.0918 30.6436 20.6758C29.1397 20.2279 27.6357 20.0039 26.1318 20.0039C24.02 20.0039 22.1644 20.4686 20.5645 21.3965C18.9645 22.2925 17.7163 23.5565 16.8203 25.1885C15.9244 26.8204 15.4756 28.7403 15.4756 30.9482C15.4756 34.1481 16.4365 36.6763 18.3564 38.5322C20.3084 40.356 22.9644 41.2676 26.3242 41.2676C27.6681 41.2676 28.9164 41.1725 30.0684 40.9805V34.3564H26.0361V28.7402H36.4521V45.3477C33.1562 46.5957 29.6198 47.2197 25.8438 47.2197C22.2599 47.2197 19.1879 46.5956 16.6279 45.3477C14.068 44.0677 12.0996 42.2598 10.7236 39.9238C9.34774 37.5559 8.66016 34.7236 8.66016 31.4277C8.66019 27.9398 9.38035 24.8996 10.8203 22.3076C12.2923 19.7158 14.34 17.6997 16.9639 16.2598C19.5878 14.8198 22.6439 14.0996 26.1318 14.0996ZM69.6328 21.7803H75.873V27.5879H69.6328V39.252C69.6328 40.6279 70.4007 41.3163 71.9365 41.3164C72.8325 41.3164 73.8568 41.1084 75.0088 40.6924L76.4971 45.7803C74.4492 46.7402 72.337 47.2197 70.1611 47.2197C67.8573 47.2197 66.0651 46.644 64.7852 45.4922C63.5372 44.3082 62.9131 42.644 62.9131 40.5V27.5879H59.0723V21.7803H62.9131V16.5C65.217 16.116 67.4569 15.8277 69.6328 15.6357V21.7803ZM136.402 21.1084C138.93 21.1084 141.123 21.6522 142.979 22.7402C144.866 23.7962 146.339 25.3001 147.395 27.252C148.45 29.1718 148.978 31.4278 148.979 34.0195C148.979 36.6434 148.45 38.9477 147.395 40.9316C146.371 42.9156 144.914 44.4679 143.026 45.5879C141.138 46.6759 138.946 47.2197 136.45 47.2197C133.922 47.2197 131.714 46.6759 129.826 45.5879C127.938 44.4999 126.466 42.9802 125.41 41.0283C124.354 39.0763 123.826 36.788 123.826 34.1641C123.826 31.5401 124.354 29.2518 125.41 27.2998C126.466 25.3479 127.938 23.8282 129.826 22.7402C131.714 21.6522 133.906 21.1084 136.402 21.1084ZM190.155 21.1084C193.739 21.1084 196.491 22.2605 198.411 24.5645C200.331 26.8684 201.291 30.196 201.291 34.5479V35.4121C201.291 35.668 201.275 35.9238 201.243 36.1797H184.924C185.564 39.6356 187.851 41.3641 191.787 41.3643C193.003 41.3643 194.235 41.2196 195.483 40.9316C196.763 40.6116 197.884 40.1956 198.844 39.6836L199.947 45.1084C197.291 46.5163 194.299 47.2197 190.972 47.2197C187.004 47.2197 183.867 46.0677 181.563 43.7637C179.26 41.4597 178.107 38.2599 178.107 34.1641C178.107 31.4761 178.604 29.1561 179.596 27.2041C180.588 25.2522 181.98 23.7484 183.771 22.6924C185.595 21.6364 187.723 21.1084 190.155 21.1084ZM53.1787 40.6924H57.3066V46.5H41.8027V40.6924H46.4111V27.5879H41.8027V21.7803H53.1787V40.6924ZM163.744 39.0117L168.977 21.7803H176.225L167.537 46.5H159.616L150.881 21.876L158.272 21.2041L163.744 39.0117ZM136.402 26.9639C134.674 26.9639 133.283 27.6199 132.227 28.9316C131.203 30.2116 130.69 31.9402 130.69 34.1162C130.69 36.2921 131.203 38.0525 132.227 39.3965C133.283 40.7082 134.675 41.3643 136.402 41.3643C138.13 41.3642 139.506 40.7083 140.53 39.3965C141.586 38.0525 142.114 36.2921 142.114 34.1162C142.114 31.9402 141.586 30.2116 140.53 28.9316C139.506 27.6198 138.13 26.9639 136.402 26.9639ZM189.915 26.5801C188.539 26.5802 187.404 26.9804 186.508 27.7803C185.644 28.5802 185.1 29.6839 184.876 31.0918H194.812C194.715 29.7159 194.235 28.6281 193.371 27.8281C192.507 26.9962 191.355 26.5801 189.915 26.5801ZM199.132 17.0596L199.957 14.6699H200.856L201.162 18H200.512L200.282 15.6602L199.401 18.0352L198.807 18.0898L197.922 15.6504L197.712 18H197.066L197.382 14.6699H198.282L199.132 17.0596ZM196.69 15.2998H195.79V18H195.06V15.2998H194.15V14.6699H196.69V15.2998ZM53.2744 17.7002H45.5469V11.46H53.2744V17.7002Z" fill="black"/>
</svg>
